<svg id="Слой_1" data-name="Слой 1" xmlns="http://www.w3.org/2000/svg" viewBox="0 0 31.9 31.9"><defs><style>.cls-1{fill:#c8c7c7;}.cls-2{fill:#f5991c;}.cls-3{fill:#37373f;}.cls-4{fill:#162a45;}</style></defs><title>clock</title><path class="cls-1" d="M17.68,15.15l5.69-5.69-.72-.72-4.8,4.8a.51.51,0,0,1-.72,0l-.69.69A1.87,1.87,0,0,1,17.68,15.15Z" transform="translate(-0.1 -0.05)"/><path class="cls-2" d="M16.05,1.07A14.93,14.93,0,1,0,31,16,14.95,14.95,0,0,0,16.05,1.07Zm10.55,24a.51.51,0,0,1-.72.05h0q-.35.37-.72.72h0a.51.51,0,0,1-.05.72,13.93,13.93,0,1,1,1.49-1.49Z" transform="translate(-0.1 -0.05)"/><path class="cls-3" d="M27.33,4.72A15.95,15.95,0,1,0,4.77,27.28,15.95,15.95,0,1,0,27.33,4.72ZM16.05,30.93A14.93,14.93,0,1,1,31,16,14.95,14.95,0,0,1,16.05,30.93Z" transform="translate(-0.1 -0.05)"/><path class="cls-4" d="M27.93,16a.51.51,0,0,0-.51-.51h-2a.51.51,0,1,0,0,1h2A.51.51,0,0,0,27.93,16Z" transform="translate(-0.1 -0.05)"/><path class="cls-3" d="M23,7.6a.51.51,0,0,0-.72,0l-5.16,5.16a.51.51,0,1,0,.72.72l4.8-4.8.72.72-5.69,5.69a1.87,1.87,0,0,0-1.24-.92h-.06L12,9.76a.51.51,0,0,0-.72,0L9.81,11.2a.51.51,0,0,0,0,.72l4.4,4.4a1.85,1.85,0,0,0,.21.59L9.09,22.24a.51.51,0,1,0,.72.72l5.33-5.33a1.86,1.86,0,0,0,2.75-1.31l6.56-6.56a.51.51,0,0,0,0-.72Zm-7.87,6.77a1.88,1.88,0,0,0-.72.72l-3.53-3.53.72-.72ZM15.2,16a.85.85,0,1,1,.85.85A.85.85,0,0,1,15.2,16Z" transform="translate(-0.1 -0.05)"/><path class="cls-3" d="M16.05,2.09a13.91,13.91,0,1,0,9.06,24.47.51.51,0,0,0,.05-.72h0a.51.51,0,0,0-.71,0,12.91,12.91,0,1,1,1.39-1.39.51.51,0,0,0,0,.71h0a.51.51,0,0,0,.72-.05,13.91,13.91,0,0,0-10.55-23Z" transform="translate(-0.1 -0.05)"/><path class="cls-4" d="M7.33,42.92" transform="translate(-0.1 -0.05)"/></svg>