<svg width="35" height="40" viewBox="0 0 35 40" fill="none" xmlns="http://www.w3.org/2000/svg">
<path d="M31.6203 16.4839H26.0072V15.709C26.0072 15.2434 25.6298 14.866 25.1642 14.866H9.83617C9.37055 14.866 8.9931 15.2434 8.9931 15.709V16.4839H3.38006C2.91444 16.4839 2.53699 16.8614 2.53699 17.327V21.1449C2.53699 22.1887 2.94351 23.1701 3.68164 23.9082C4.41977 24.6463 5.40111 25.0528 6.44492 25.0528H9.209C10.0162 28.5619 13.0001 31.2488 16.6572 31.6102V35.4054H14.3993C13.0952 35.4054 12.0341 36.4664 12.0341 37.7705V39.1567C12.0341 39.6224 12.4116 39.9998 12.8772 39.9998H22.1233C22.5889 39.9998 22.9664 39.6224 22.9664 39.1567V37.7705C22.9664 36.4664 21.9053 35.4054 20.6012 35.4054H18.3434V31.6102C22.0005 31.2487 24.9843 28.5618 25.7915 25.0528H28.5555C30.7104 25.0528 32.4635 23.2997 32.4635 21.1448V17.327C32.4633 16.8614 32.0859 16.4839 31.6203 16.4839ZM21.2802 37.7705V38.3137H13.7202V37.7705C13.7202 37.3961 14.0248 37.0915 14.3992 37.0915H20.6011C20.9755 37.0914 21.2802 37.396 21.2802 37.7705ZM8.99446 23.3667H6.44484C5.8514 23.3667 5.29344 23.1356 4.87391 22.716C4.45414 22.2963 4.22314 21.7383 4.22314 21.145V18.1702H8.99454V23.3667H8.99446ZM24.3211 23.1448C24.3211 26.9059 21.2612 29.9658 17.5001 29.9658C13.739 29.9658 10.6792 26.9059 10.6792 23.1448V16.5521H24.3211V23.1448ZM26.0058 18.1701H30.7773V21.1448C30.7773 22.3699 29.7806 23.3667 28.5554 23.3667H26.0058V18.1701Z" fill="#37373F"/>
<path d="M13.9242 8.60546L13.2916 11.9436C13.2308 12.2641 13.3604 12.5909 13.6244 12.7826C13.8884 12.9744 14.2392 12.9967 14.5252 12.8399L17.5045 11.2068L20.4839 12.8399C20.6106 12.9093 20.7501 12.9436 20.8891 12.9436C21.0638 12.9436 21.2377 12.8894 21.3847 12.7826C21.6486 12.5909 21.7782 12.2641 21.7176 11.9436L21.0852 8.60546L23.5588 6.27665C23.7963 6.05303 23.8835 5.71251 23.7827 5.40226C23.6818 5.09201 23.4112 4.86775 23.0876 4.82648L19.7172 4.39651L18.2669 1.32402C18.1277 1.02903 17.8307 0.84082 17.5045 0.84082C17.1783 0.84082 16.8814 1.02903 16.7421 1.32402L15.2917 4.39651L11.9214 4.82648C11.5978 4.86775 11.3272 5.09201 11.2263 5.40226C11.1256 5.71243 11.2128 6.05311 11.4503 6.27665L13.9242 8.60546ZM15.9636 6.01064C16.2492 5.97418 16.4964 5.79457 16.6193 5.53418L17.5045 3.65886L18.3897 5.53418C18.5126 5.79449 18.7598 5.9741 19.0454 6.01064L21.1027 6.27311L19.5928 7.69454C19.3832 7.8919 19.2888 8.18248 19.3423 8.46535L19.7284 10.503L17.9097 9.50619C17.7835 9.43697 17.644 9.40237 17.5045 9.40237C17.365 9.40237 17.2255 9.43697 17.0993 9.50619L15.2808 10.5029L15.6669 8.46535C15.7206 8.18256 15.6261 7.89182 15.4165 7.69454L13.9065 6.27311L15.9636 6.01064Z" fill="#FC9B09"/>
<path d="M34.9574 8.41036C34.8565 8.10011 34.5859 7.87585 34.2623 7.83458L31.832 7.52449L30.7862 5.30889C30.6469 5.01389 30.3499 4.82568 30.0238 4.82568C29.6976 4.82568 29.4006 5.01389 29.2614 5.30889L28.2155 7.52449L25.7852 7.83458C25.4616 7.87585 25.1909 8.10011 25.0901 8.41036C24.9893 8.72053 25.0765 9.06113 25.314 9.28475L27.098 10.964L26.6418 13.3711C26.581 13.6915 26.7106 14.0184 26.9746 14.2101C27.1216 14.3169 27.2955 14.3711 27.4702 14.3711C27.6091 14.3711 27.7487 14.3368 27.8754 14.2673L30.0238 13.0897L32.1723 14.2673C32.4583 14.4242 32.8091 14.4019 33.0731 14.2101C33.3369 14.0183 33.4665 13.6916 33.4059 13.3711L32.9498 10.964L34.7336 9.28475C34.9709 9.06113 35.0581 8.72061 34.9574 8.41036ZM31.4575 10.0531C31.2479 10.2504 31.1535 10.541 31.2071 10.8239L31.4167 11.9305L30.4289 11.3891C30.3027 11.3199 30.1632 11.2853 30.0237 11.2853C29.8842 11.2853 29.7447 11.3199 29.6185 11.3891L28.6309 11.9304L28.8406 10.8239C28.8942 10.5411 28.7997 10.2504 28.5901 10.053L27.7701 9.28114L28.8872 9.13862C29.1728 9.10224 29.4201 8.92263 29.5429 8.66224L30.0236 7.6438L30.5043 8.66224C30.6272 8.92255 30.8744 9.10216 31.16 9.13862L32.2773 9.28114L31.4575 10.0531Z" fill="#FC9B09"/>
<path d="M4.97487 13.0898L7.12334 14.2674C7.40943 14.4243 7.76022 14.402 8.02415 14.2102C8.28799 14.0184 8.41758 13.6917 8.35696 13.3712L7.9009 10.9641L9.68468 9.28483C9.92219 9.06121 10.0094 8.72069 9.90862 8.41044C9.80777 8.10019 9.53711 7.87593 9.21353 7.83466L6.78314 7.52449L5.73725 5.30889C5.59802 5.01389 5.30101 4.82568 4.97487 4.82568C4.64872 4.82568 4.35171 5.01389 4.21248 5.30889L3.16667 7.52449L0.736367 7.83458C0.412787 7.87585 0.14212 8.10011 0.0412719 8.41036C-0.0594956 8.72053 0.0277025 9.06113 0.265209 9.28475L2.04915 10.964L1.59293 13.3711C1.53215 13.6915 1.66174 14.0184 1.92575 14.2101C2.07276 14.3169 2.24668 14.3711 2.42139 14.3711C2.56038 14.3711 2.69985 14.3368 2.82655 14.2673L4.97487 13.0898ZM3.83848 9.13862C4.12408 9.10224 4.3713 8.92263 4.49415 8.66224L4.97487 7.6438L5.45558 8.66224C5.57843 8.92255 5.82565 9.10216 6.11125 9.13862L7.22853 9.28114L6.40857 10.0531C6.19901 10.2504 6.10459 10.541 6.15814 10.8239L6.36779 11.9305L5.38002 11.3891C5.2538 11.3199 5.11425 11.2853 4.97479 11.2853C4.83532 11.2853 4.69577 11.3199 4.56955 11.3891L3.58203 11.9304L3.79167 10.8239C3.84531 10.5411 3.7508 10.2504 3.54124 10.053L2.72121 9.28114L3.83848 9.13862Z" fill="#FC9B09"/>
</svg>
